<svg xmlns="http://www.w3.org/2000/svg" viewBox="0 0 240 160" width="100%" height="100%" role="img" aria-labelledby="cloud-model-title cloud-model-desc">
  <title id="cloud-model-title">Cloud Model</title>
  <desc id="cloud-model-desc">Global AI model cloud</desc>
  
  <rect width="240" height="160" rx="16" fill="var(--color-neutral-100)" opacity="0" />
  <path d="M70 110 A30 30 0 0 1 70 50 A40 40 0 0 1 140 30 A50 50 0 0 1 200 80 A30 30 0 0 1 180 130 Z" fill="var(--color-info)" opacity="0.2" />
  <path d="M80 100 A24 24 0 0 1 80 52 A32 32 0 0 1 136 36 A40 40 0 0 1 184 76 A24 24 0 0 1 168 116 Z" fill="var(--color-info)" />
  <circle cx="110" cy="76" r="12" fill="var(--color-neutral-100)" />
  <circle cx="150" cy="84" r="8" fill="var(--color-neutral-100)" />
  <path d="M110 76 L150 84" stroke="var(--color-neutral-100)" stroke-width="2" />

</svg>